<svg xmlns="http://www.w3.org/2000/svg" width="300" height="280" viewBox="0 0 300 280" fill="none">
<rect width="300" height="280" fill="black"/>
<g filter="url(#filter0_d)">
<path d="M150 204C185.346 204 214 175.346 214 140C214 104.654 185.346 76 150 76C114.654 76 86 104.654 86 140C86 175.346 114.654 204 150 204Z" fill="url(#paint0_linear)"/>
</g>
<path d="M178.055 118.178C169.923 107.916 156.651 103.092 143.762 105.696C117.371 111.133 106.17 141.687 122.895 162.822C131.027 173.084 144.299 177.908 157.188 175.304C183.655 169.867 194.856 139.313 178.055 118.178ZM169.156 158.228C168.618 158.151 168.081 157.998 167.544 157.768C167.314 157.615 167.007 157.692 166.854 157.921C166.777 158.075 166.777 158.228 166.854 158.381C167.007 158.84 167.161 159.3 167.238 159.836C168.005 165.12 162.404 170.327 154.656 171.399C146.907 172.471 140.156 169.025 139.389 163.741C139.312 163.205 139.312 162.593 139.389 162.057C139.466 161.827 139.312 161.52 139.006 161.444C138.852 161.367 138.622 161.444 138.545 161.597C138.162 161.903 137.701 162.133 137.318 162.363C132.485 164.737 125.81 160.984 122.435 154.016C119.059 147.047 120.21 139.466 125.043 137.169C125.58 136.939 126.04 136.709 126.654 136.633C126.884 136.633 127.114 136.403 127.114 136.097C127.114 135.944 126.961 135.79 126.807 135.714C126.424 135.408 126.04 135.101 125.657 134.795C121.898 130.966 123.432 123.462 128.956 118.101C134.556 112.741 142.074 111.515 145.833 115.344C146.217 115.727 146.601 116.187 146.831 116.723C146.907 116.952 147.214 117.106 147.444 116.952C147.598 116.876 147.675 116.723 147.751 116.57C147.905 116.11 148.058 115.651 148.365 115.191C150.897 110.443 158.492 109.524 165.32 113.2C172.147 116.799 175.676 123.615 173.145 128.362C172.915 128.899 172.531 129.358 172.147 129.741C171.917 129.894 171.917 130.2 172.071 130.43C172.147 130.583 172.378 130.583 172.531 130.583C172.991 130.583 173.528 130.583 173.989 130.66C179.282 131.579 182.504 138.547 181.123 146.128C179.819 153.71 174.449 159.147 169.156 158.228ZM166.317 132.498C163.248 132.881 159.643 132.191 156.19 130.353C152.738 128.516 150.053 125.759 148.672 123.002C148.595 122.772 148.288 122.619 148.058 122.696C147.905 122.772 147.751 122.925 147.751 123.155C147.138 126.218 145.373 129.435 142.611 132.115C139.849 134.795 136.397 136.556 133.252 137.016C133.022 137.016 132.791 137.245 132.791 137.475C132.791 137.705 132.945 137.858 133.098 137.935C135.783 139.466 138.315 142.146 140.003 145.592C141.767 149.192 142.304 152.867 141.767 156.007C141.691 156.237 141.844 156.543 142.074 156.62C142.304 156.696 142.535 156.62 142.611 156.466C144.913 154.322 148.212 152.791 152.048 152.255C155.96 151.719 159.719 152.331 162.481 153.786C162.711 153.939 163.018 153.939 163.172 153.71C163.325 153.556 163.325 153.327 163.172 153.174C161.867 150.34 161.407 146.741 162.098 142.912C162.788 139.007 164.552 135.714 166.777 133.493C167.007 133.34 167.007 133.034 166.854 132.804C166.701 132.498 166.47 132.421 166.317 132.498Z" fill="white"/>
<defs>
<filter id="filter0_d" x="32" y="22" width="236" height="236" filterUnits="userSpaceOnUse" color-interpolation-filters="sRGB">
<feFlood flood-opacity="0" result="BackgroundImageFix"/>
<feColorMatrix in="SourceAlpha" type="matrix" values="0 0 0 0 0 0 0 0 0 0 0 0 0 0 0 0 0 0 127 0" result="hardAlpha"/>
<feOffset/>
<feGaussianBlur stdDeviation="27"/>
<feComposite in2="hardAlpha" operator="out"/>
<feColorMatrix type="matrix" values="0 0 0 0 0.208333 0 0 0 0 0.24 0 0 0 0 1 0 0 0 0.8 0"/>
<feBlend mode="normal" in2="BackgroundImageFix" result="effect1_dropShadow"/>
<feBlend mode="normal" in="SourceGraphic" in2="effect1_dropShadow" result="shape"/>
</filter>
<linearGradient id="paint0_linear" x1="195.255" y1="94.7452" x2="104.745" y2="185.255" gradientUnits="userSpaceOnUse">
<stop stop-color="#31A3FF"/>
<stop offset="0.786458" stop-color="#0057FF"/>
<stop offset="1" stop-color="#1783DB"/>
</linearGradient>
</defs>
</svg>