<svg xmlns="http://www.w3.org/2000/svg" width="230" height="179" viewBox="0 0 230 179" fill="none">
<rect x="0.659595" y="0.659595" width="228.681" height="177.681" rx="10.3404" fill="black" stroke="#1D1D1D" stroke-width="0.680809"/>
<path d="M15.7862 12.1081H16.6508C16.6246 11.1565 15.7833 10.466 14.5764 10.466C13.384 10.466 12.4702 11.1478 12.4702 12.1719C12.4702 12.9988 13.062 13.4833 14.0165 13.7415L14.7186 13.933C15.3539 14.1012 15.8442 14.3101 15.8442 14.8381C15.8442 15.4184 15.2901 15.8013 14.5271 15.8013C13.8366 15.8013 13.2622 15.4938 13.21 14.8468H12.3106C12.3686 15.9232 13.2013 16.5875 14.5329 16.5875C15.9284 16.5875 16.732 15.8535 16.732 14.8468C16.732 13.7763 15.7775 13.3614 15.0232 13.1757L14.443 13.0249C13.9788 12.9059 13.3608 12.6884 13.3637 12.1197C13.3637 11.6149 13.825 11.2407 14.5561 11.2407C15.2379 11.2407 15.7224 11.5598 15.7862 12.1081ZM19.0304 16.5875C19.7673 16.5875 20.1822 16.2133 20.3476 15.8796H20.3824V16.4889H21.2295V13.5297C21.2295 12.2329 20.2083 11.9747 19.5004 11.9747C18.6939 11.9747 17.9512 12.2996 17.6611 13.1119L18.4763 13.2976C18.604 12.9814 18.9289 12.6767 19.512 12.6767C20.072 12.6767 20.3592 12.9698 20.3592 13.4746V13.4949C20.3592 13.8111 20.0342 13.8053 19.2335 13.8981C18.3893 13.9968 17.5247 14.2173 17.5247 15.2298C17.5247 16.1059 18.1833 16.5875 19.0304 16.5875ZM19.219 15.8912C18.7287 15.8912 18.3748 15.6708 18.3748 15.2414C18.3748 14.7772 18.7867 14.6118 19.2886 14.5451C19.5701 14.5074 20.2373 14.432 20.3621 14.3072V14.8816C20.3621 15.4097 19.9414 15.8912 19.219 15.8912ZM23.2524 10.5473H22.3849V16.4889H23.2524V10.5473ZM26.34 16.5788C27.3118 16.5788 27.9994 16.1001 28.1967 15.3748L27.3757 15.2269C27.219 15.6476 26.8419 15.8622 26.3487 15.8622C25.606 15.8622 25.107 15.3806 25.0837 14.5219H28.2518V14.2144C28.2518 12.6042 27.2886 11.9747 26.279 11.9747C25.0373 11.9747 24.2192 12.9204 24.2192 14.2898C24.2192 15.6737 25.0257 16.5788 26.34 16.5788ZM25.0866 13.872C25.1215 13.2396 25.5798 12.6913 26.2848 12.6913C26.9579 12.6913 27.3989 13.1903 27.4018 13.872H25.0866ZM32.5535 13.1206C32.3737 12.4272 31.8312 11.9747 30.868 11.9747C29.8613 11.9747 29.1476 12.5056 29.1476 13.2947C29.1476 13.9272 29.5305 14.3478 30.3661 14.5335L31.1204 14.6989C31.5497 14.7946 31.7499 14.9861 31.7499 15.2646C31.7499 15.6098 31.3815 15.8796 30.8128 15.8796C30.2935 15.8796 29.9599 15.6563 29.8555 15.2182L29.017 15.3458C29.1621 16.1349 29.8177 16.5788 30.8186 16.5788C31.895 16.5788 32.6406 16.0073 32.6406 15.2008C32.6406 14.5712 32.2402 14.1825 31.4221 13.9939L30.7142 13.8314C30.2239 13.7154 30.0121 13.55 30.015 13.2483C30.0121 12.9059 30.3835 12.6622 30.8767 12.6622C31.4163 12.6622 31.6658 12.9611 31.7673 13.2599L32.5535 13.1206ZM39.5686 12.0327H38.6373L37.5117 15.4619H37.4652L36.3367 12.0327H35.4054L37.0243 16.4889H37.9526L39.5686 12.0327ZM42.1013 16.5788C43.3575 16.5788 44.1786 15.6592 44.1786 14.2811C44.1786 12.8943 43.3575 11.9747 42.1013 11.9747C40.8451 11.9747 40.0241 12.8943 40.0241 14.2811C40.0241 15.6592 40.8451 16.5788 42.1013 16.5788ZM42.1042 15.8506C41.2832 15.8506 40.9002 15.134 40.9002 14.2782C40.9002 13.4252 41.2832 12.7 42.1042 12.7C42.9194 12.7 43.3024 13.4252 43.3024 14.2782C43.3024 15.134 42.9194 15.8506 42.1042 15.8506ZM46.0143 10.5473H45.1468V16.4889H46.0143V10.5473ZM50.0041 14.6408C50.007 15.398 49.4442 15.7578 48.9568 15.7578C48.4201 15.7578 48.0487 15.369 48.0487 14.7627V12.0327H47.1813V14.8671C47.1813 15.9725 47.7876 16.5469 48.6435 16.5469C49.3136 16.5469 49.7691 16.193 49.9751 15.7172H50.0215V16.4889H50.8745V12.0327H50.0041V14.6408ZM52.04 16.4889H52.9075V13.7415C52.9075 13.1409 53.3281 12.7232 53.8213 12.7232C54.3029 12.7232 54.6366 13.0423 54.6366 13.5268V16.4889H55.5011V13.6486C55.5011 13.1119 55.829 12.7232 56.3947 12.7232C56.8531 12.7232 57.2302 12.9785 57.2302 13.5819V16.4889H58.0977V13.5007C58.0977 12.4824 57.529 11.9747 56.7225 11.9747C56.0814 11.9747 55.5998 12.2822 55.3851 12.758H55.3387C55.1443 12.2706 54.7352 11.9747 54.1405 11.9747C53.5515 11.9747 53.1135 12.2677 52.9278 12.758H52.8727V12.0327H52.04V16.4889ZM61.1809 16.5788C62.1528 16.5788 62.8404 16.1001 63.0377 15.3748L62.2166 15.2269C62.06 15.6476 61.6828 15.8622 61.1896 15.8622C60.4469 15.8622 59.9479 15.3806 59.9247 14.5219H63.0928V14.2144C63.0928 12.6042 62.1296 11.9747 61.12 11.9747C59.8783 11.9747 59.0601 12.9204 59.0601 14.2898C59.0601 15.6737 59.8667 16.5788 61.1809 16.5788ZM59.9276 13.872C59.9624 13.2396 60.4208 12.6913 61.1258 12.6913C61.7989 12.6913 62.2398 13.1903 62.2427 13.872H59.9276Z" fill="#7E7E7E"/>
<path d="M15.4221 32.8151H16.3447L16.349 31.8185C18.2159 31.6836 19.2865 30.6566 19.2908 29.1988C19.2865 27.6539 18.0114 26.9489 16.6711 26.6312L16.3838 26.5573L16.4013 24.0724C17.0975 24.1943 17.5458 24.612 17.6154 25.2387H19.169C19.1429 23.8548 18.0549 22.8452 16.41 22.6885L16.4143 21.6746H15.4917L15.4874 22.6885C13.8555 22.8539 12.6805 23.8548 12.6848 25.2953C12.6848 26.5747 13.5944 27.3101 15.0609 27.6887L15.4526 27.7888L15.4352 30.4216C14.6562 30.2998 14.0948 29.8559 14.0382 29.0682H12.4498C12.5108 30.7001 13.6335 31.6706 15.4265 31.8185L15.4221 32.8151ZM16.3577 30.4216L16.3751 28.0325C17.1672 28.2632 17.672 28.5678 17.6763 29.1857C17.672 29.8298 17.1541 30.2911 16.3577 30.4216ZM15.4613 26.3223C14.8607 26.1308 14.3124 25.8131 14.3211 25.1952C14.3255 24.6338 14.7476 24.1986 15.4787 24.0724L15.4613 26.3223ZM23.7416 31.8229C25.6259 31.8229 26.9401 30.5435 26.9401 28.7723C26.9401 27.0577 25.7478 25.8218 24.1289 25.8218C23.4065 25.8218 22.7668 26.109 22.4361 26.5007H22.3838L22.6406 24.1377H26.4745V22.7886H21.3046L20.839 27.3841L22.2968 27.6234C22.5971 27.2927 23.1628 27.0708 23.6981 27.0751C24.6772 27.0795 25.3822 27.8019 25.3779 28.8115C25.3822 29.808 24.6946 30.5174 23.7416 30.5174C22.9365 30.5174 22.2881 30.0082 22.2315 29.2771H20.6649C20.7084 30.7567 22.0009 31.8229 23.7416 31.8229ZM31.6923 31.8708C33.842 31.8751 35.1258 30.1779 35.1258 27.2535C35.1258 24.3466 33.8333 22.6668 31.6923 22.6668C29.5512 22.6668 28.2631 24.3422 28.2587 27.2535C28.2587 30.1736 29.5425 31.8708 31.6923 31.8708ZM31.6923 30.5087C30.5826 30.5087 29.8863 29.3946 29.8906 27.2535C29.895 25.1299 30.5869 24.0115 31.6923 24.0115C32.802 24.0115 33.4939 25.1299 33.4982 27.2535C33.4982 29.3946 32.8063 30.5087 31.6923 30.5087ZM39.7702 31.8229C41.6763 31.8229 43.0645 30.7306 43.0602 29.2249C43.0645 28.1108 42.3682 27.3101 41.1193 27.1317V27.0621C42.0854 26.8532 42.7338 26.1351 42.7294 25.1342C42.7338 23.7765 41.5762 22.6668 39.7963 22.6668C38.0643 22.6668 36.724 23.6982 36.6892 25.1908H38.2428C38.2689 24.4423 38.9651 23.9767 39.7876 23.9767C40.6188 23.9767 41.1715 24.4815 41.1671 25.23C41.1715 26.0089 40.5274 26.5268 39.6049 26.5268H38.8172V27.7714H39.6049C40.732 27.7714 41.4021 28.3371 41.3978 29.1422C41.4021 29.9299 40.7189 30.4695 39.7659 30.4695C38.8694 30.4695 38.1775 30.0039 38.1383 29.2771H36.502C36.5456 30.7828 37.8903 31.8229 39.7702 31.8229ZM46.1575 30.4826H44.765L44.7345 30.97C44.6605 32.1493 44.3515 33.3504 44.2253 33.8769H45.2872C45.4961 33.3286 45.9791 32.0579 46.101 30.9612L46.1575 30.4826ZM47.9048 31.701H54.0146V30.352H50.1329V30.2911L51.669 28.7288C53.401 27.0664 53.8797 26.257 53.8797 25.2517C53.8797 23.7591 52.6656 22.6668 50.8727 22.6668C49.1058 22.6668 47.8525 23.7634 47.8525 25.4563H49.3887C49.3887 24.5467 49.9631 23.9767 50.8509 23.9767C51.6995 23.9767 52.3305 24.4945 52.3305 25.3344C52.3305 26.0786 51.8779 26.6095 50.9989 27.5016L47.9048 30.5348V31.701ZM58.8103 31.8708C60.9601 31.8751 62.2438 30.1779 62.2438 27.2535C62.2438 24.3466 60.9513 22.6668 58.8103 22.6668C56.6692 22.6668 55.3811 24.3422 55.3767 27.2535C55.3767 30.1736 56.6605 31.8708 58.8103 31.8708ZM58.8103 30.5087C57.7006 30.5087 57.0043 29.3946 57.0086 27.2535C57.013 25.1299 57.7049 24.0115 58.8103 24.0115C59.92 24.0115 60.6119 25.1299 60.6163 27.2535C60.6163 29.3946 59.9243 30.5087 58.8103 30.5087ZM67.3147 22.7886H65.7785L63.5635 24.2117V25.6913L65.648 24.3596H65.7002V31.701H67.3147V22.7886Z" fill="#D1D5DB"/>
<rect x="173" y="13.2546" width="45.6142" height="16.3394" rx="8.16971" fill="#34D399" fill-opacity="0.2"/>
<path fill-rule="evenodd" clip-rule="evenodd" d="M183.412 21.2245C183.284 21.0968 183.212 20.9237 183.212 20.7431C183.212 20.5626 183.284 20.3895 183.412 20.2618L186.139 17.5386C186.266 17.4109 186.44 17.3392 186.62 17.3392C186.801 17.3392 186.975 17.4109 187.102 17.5386L189.829 20.2618C189.953 20.3902 190.022 20.5622 190.02 20.7407C190.019 20.9192 189.947 21.0899 189.821 21.2162C189.694 21.3424 189.523 21.414 189.345 21.4156C189.166 21.4171 188.994 21.3485 188.865 21.2245L187.302 19.6634V24.828C187.302 25.0086 187.23 25.1817 187.102 25.3094C186.975 25.4371 186.801 25.5088 186.62 25.5088C186.44 25.5088 186.266 25.4371 186.138 25.3094C186.011 25.1817 185.939 25.0086 185.939 24.828V19.6634L184.376 21.2245C184.248 21.3521 184.075 21.4238 183.894 21.4238C183.713 21.4238 183.54 21.3521 183.412 21.2245Z" fill="#10B981"/>
<path d="M196.859 17.6842H195.841L194.111 18.8147V19.8166L195.77 18.7335H195.81V24.6161H196.859V17.6842ZM198.735 24.6161H203.297V23.7191H200.176V23.6684L201.554 22.2265C202.823 20.9437 203.185 20.3311 203.185 19.556C203.185 18.4424 202.278 17.5894 200.972 17.5894C199.676 17.5894 198.728 18.4288 198.728 19.6947H199.726C199.723 18.9501 200.204 18.4627 200.952 18.4627C201.656 18.4627 202.19 18.8959 202.19 19.5864C202.19 20.199 201.825 20.6391 201.08 21.4277L198.735 23.8579V24.6161ZM208.198 23.3164C208.202 24.0982 208.692 24.7582 209.61 24.7582C210.517 24.7582 211.014 24.0982 211.014 23.3164V22.9508C211.014 22.1656 210.53 21.5089 209.61 21.5089C208.706 21.5089 208.202 22.1689 208.198 22.9508V23.3164ZM204.712 19.3495C204.712 20.1314 205.206 20.7914 206.123 20.7914C207.027 20.7914 207.528 20.1347 207.525 19.3495V18.9839C207.528 18.1987 207.041 17.5421 206.123 17.5421C205.223 17.5421 204.712 18.1987 204.712 18.9839V19.3495ZM204.996 24.6161H205.805L210.571 17.6842H209.762L204.996 24.6161ZM208.987 22.9508C208.99 22.5616 209.159 22.1859 209.61 22.1859C210.077 22.1859 210.222 22.5616 210.222 22.9508V23.3164C210.222 23.7056 210.063 24.0813 209.61 24.0813C209.149 24.0813 208.99 23.7022 208.987 23.3164V22.9508ZM205.504 18.9839C205.504 18.5981 205.673 18.219 206.123 18.219C206.59 18.219 206.736 18.5947 206.736 18.9839V19.3495C206.736 19.7387 206.577 20.1144 206.123 20.1144C205.663 20.1144 205.504 19.7387 205.504 19.3495V18.9839Z" fill="#34D399"/>
<rect x="1" y="41" width="229" height="1" fill="#1D1D1D"/>
<mask id="mask0" mask-type="alpha" maskUnits="userSpaceOnUse" x="1" y="76" width="228" height="97">
<path d="M1 76.9999H229V162.788C229 168.428 224.428 173 218.788 173H1L1 76.9999Z" fill="white"/>
</mask>
<g mask="url(#mask0)">
<path opacity="0.243651" fill-rule="evenodd" clip-rule="evenodd" d="M-0.355469 122.663C-0.355469 122.663 2.06127 129.757 10.7482 129.757C19.4351 129.757 30.5143 148.105 47.2151 141.364C63.9159 134.623 70.776 96.4177 85.7277 96.5466C100.68 96.6755 109.979 122.663 123.463 122.663C136.946 122.663 145.003 96.6755 161.253 96.6755C177.503 96.6755 179.416 140.391 199.015 139.438C218.614 138.484 224.861 92.9999 236.777 92.9999C248.694 92.9999 251.645 100.17 251.645 100.17L250.282 178H54.9813C24.4196 178 -0.355469 153.225 -0.355469 122.663Z" fill="url(#paint0_linear)"/>
<g filter="url(#filter0_dd)">
<path d="M0.0550483 177.591L0.0550483 124.409C0.427157 125.026 0.946447 125.759 1.64507 126.492C3.40135 128.335 6.28015 130.165 10.7501 130.165C12.7926 130.165 15.0251 131.249 17.5439 132.862C18.6947 133.599 19.8882 134.435 21.1374 135.31C21.2472 135.387 21.3575 135.464 21.4681 135.541C22.835 136.498 24.2654 137.492 25.7605 138.434C31.7414 142.202 38.8349 145.188 47.3696 141.743C51.654 140.013 55.2702 136.284 58.51 131.736C61.5199 127.511 64.2375 122.53 66.8764 117.694C67.0805 117.32 67.284 116.947 67.4872 116.575C70.3267 111.379 73.0901 106.44 76.0683 102.806C79.0513 99.1657 82.1774 96.9245 85.7255 96.955C89.3398 96.9862 92.6393 98.5792 95.7874 101.005C98.9386 103.434 101.9 106.666 104.844 109.927C104.987 110.085 105.13 110.244 105.273 110.403C108.061 113.493 110.841 116.575 113.724 118.918C116.757 121.381 119.957 123.072 123.464 123.072C126.973 123.072 130.096 121.379 133.034 118.916C135.694 116.685 138.245 113.784 140.826 110.85C141.093 110.547 141.36 110.243 141.627 109.94C144.495 106.689 147.421 103.471 150.634 101.063C153.842 98.6594 157.308 97.0839 161.253 97.0839C165.106 97.0839 168.165 99.6684 170.915 103.721C173.375 107.346 175.524 112.053 177.733 116.891C177.99 117.454 178.248 118.019 178.507 118.585C180.984 123.983 183.588 129.405 186.814 133.415C190.047 137.434 193.955 140.093 199.035 139.846C204.105 139.599 208.268 136.472 211.827 132.035C215.387 127.596 218.395 121.783 221.146 116.037C221.799 114.672 222.438 113.312 223.066 111.974C225.091 107.661 227.006 103.581 228.956 100.332C230.232 98.2056 231.507 96.4633 232.814 95.2563C234.121 94.0506 235.427 93.4084 236.777 93.4084C242.647 93.4084 246.272 95.1716 248.424 96.903C249.502 97.7712 250.217 98.637 250.661 99.2811C250.883 99.6032 251.036 99.8697 251.134 100.053C251.179 100.139 251.213 100.207 251.235 100.254L249.88 177.591H0.0550483Z" stroke="#7B61FF" stroke-width="0.816971" shape-rendering="crispEdges"/>
</g>
</g>
<path d="M31.3038 163.049V168.99H31.9769V164.476H32.0349L33.8917 168.99H34.5416L36.3983 164.476H36.4563V168.99H37.1294V163.049H36.2707L34.2514 167.981H34.1818L32.1626 163.049H31.3038ZM40.2895 169.083C41.4964 169.083 42.3087 168.166 42.3087 166.785C42.3087 165.393 41.4964 164.476 40.2895 164.476C39.0826 164.476 38.2703 165.393 38.2703 166.785C38.2703 168.166 39.0826 169.083 40.2895 169.083ZM40.2895 168.468C39.3727 168.468 38.955 167.679 38.955 166.785C38.955 165.892 39.3727 165.091 40.2895 165.091C41.2063 165.091 41.6241 165.892 41.6241 166.785C41.6241 167.679 41.2063 168.468 40.2895 168.468ZM44.0386 166.31C44.0386 165.532 44.5202 165.091 45.1758 165.091C45.8112 165.091 46.197 165.506 46.197 166.205V168.99H46.8817V166.159C46.8817 165.021 46.2754 164.476 45.3731 164.476C44.7 164.476 44.2823 164.778 44.0734 165.23H44.0153V164.534H43.3539V168.99H44.0386V166.31Z" fill="#424242"/>
<path opacity="0.466653" d="M11.5674 147.813H10.8479L9.36249 148.799V149.531L10.8131 148.567H10.8479V153.755H11.5674V147.813ZM15.2142 153.836C16.5255 153.836 17.2798 152.725 17.2798 150.784C17.2798 148.857 16.5139 147.732 15.2142 147.732C13.9144 147.732 13.1485 148.857 13.1485 150.784C13.1485 152.725 13.9028 153.836 15.2142 153.836ZM15.2142 153.198C14.3496 153.198 13.8448 152.33 13.8448 150.784C13.8448 149.24 14.3554 148.358 15.2142 148.358C16.0729 148.358 16.5835 149.24 16.5835 150.784C16.5835 152.33 16.0787 153.198 15.2142 153.198ZM20.3202 153.836C21.6316 153.836 22.3859 152.725 22.3859 150.784C22.3859 148.857 21.62 147.732 20.3202 147.732C19.0205 147.732 18.2546 148.857 18.2546 150.784C18.2546 152.725 19.0089 153.836 20.3202 153.836ZM20.3202 153.198C19.4557 153.198 18.9509 152.33 18.9509 150.784C18.9509 149.24 19.4615 148.358 20.3202 148.358C21.179 148.358 21.6896 149.24 21.6896 150.784C21.6896 152.33 21.1848 153.198 20.3202 153.198ZM23.4999 153.755H24.1846V152.086L24.6633 151.643L26.3315 153.755H27.2018L25.1797 151.202L27.0626 149.298H26.2154L24.2658 151.283H24.1846V147.813H23.4999V153.755Z" fill="#D1D5DB"/>
<path opacity="0.466653" d="M8.9041 132.373H12.6524V131.735H9.8905V131.689L11.225 130.261C12.2463 129.167 12.548 128.657 12.548 127.998C12.548 127.082 11.8053 126.35 10.7609 126.35C9.71933 126.35 8.92731 127.058 8.92731 128.103H9.61199C9.61199 127.427 10.0501 126.977 10.7376 126.977C11.3817 126.977 11.8749 127.372 11.8749 127.998C11.8749 128.547 11.5529 128.953 10.8653 129.704L8.9041 131.851V132.373ZM15.7886 132.455C17.0999 132.455 17.8542 131.343 17.8542 129.402C17.8542 127.476 17.0883 126.35 15.7886 126.35C14.4889 126.35 13.723 127.476 13.723 129.402C13.723 131.343 14.4773 132.455 15.7886 132.455ZM15.7886 131.816C14.924 131.816 14.4192 130.949 14.4192 129.402C14.4192 127.859 14.9298 126.977 15.7886 126.977C16.6473 126.977 17.1579 127.859 17.1579 129.402C17.1579 130.949 16.6531 131.816 15.7886 131.816ZM20.8947 132.455C22.206 132.455 22.9603 131.343 22.9603 129.402C22.9603 127.476 22.1944 126.35 20.8947 126.35C19.5949 126.35 18.829 127.476 18.829 129.402C18.829 131.343 19.5833 132.455 20.8947 132.455ZM20.8947 131.816C20.0301 131.816 19.5253 130.949 19.5253 129.402C19.5253 127.859 20.0359 126.977 20.8947 126.977C21.7534 126.977 22.264 127.859 22.264 129.402C22.264 130.949 21.7592 131.816 20.8947 131.816ZM24.0744 132.373H24.759V130.705L25.2377 130.261L26.9059 132.373H27.7763L25.7541 129.82L27.637 127.917H26.7899L24.8403 129.901H24.759V126.432H24.0744V132.373Z" fill="#D1D5DB"/>
<path opacity="0.466653" d="M10.7841 108.351C11.9358 108.351 12.7917 107.628 12.7917 106.656C12.7917 105.902 12.3449 105.354 11.5964 105.229V105.182C12.1969 105 12.5712 104.506 12.5712 103.836C12.5712 102.995 11.9068 102.246 10.8073 102.246C9.78026 102.246 8.92731 102.879 8.8925 103.813H9.58878C9.61489 103.221 10.1777 102.873 10.7957 102.873C11.4513 102.873 11.8749 103.271 11.8749 103.871C11.8749 104.498 11.3846 104.904 10.6796 104.904H10.2038V105.542H10.6796C11.5819 105.542 12.0838 106.001 12.0838 106.656C12.0838 107.286 11.5355 107.712 10.7725 107.712C10.0849 107.712 9.53946 107.358 9.49594 106.784H8.76485C8.80836 107.718 9.6323 108.351 10.7841 108.351ZM15.9162 108.351C17.2276 108.351 17.9819 107.239 17.9819 105.298C17.9819 103.372 17.216 102.246 15.9162 102.246C14.6165 102.246 13.8506 103.372 13.8506 105.298C13.8506 107.239 14.6049 108.351 15.9162 108.351ZM15.9162 107.712C15.0517 107.712 14.5469 106.845 14.5469 105.298C14.5469 103.755 15.0575 102.873 15.9162 102.873C16.775 102.873 17.2856 103.755 17.2856 105.298C17.2856 106.845 16.7808 107.712 15.9162 107.712ZM21.0223 108.351C22.3336 108.351 23.088 107.239 23.088 105.298C23.088 103.372 22.322 102.246 21.0223 102.246C19.7226 102.246 18.9567 103.372 18.9567 105.298C18.9567 107.239 19.711 108.351 21.0223 108.351ZM21.0223 107.712C20.1578 107.712 19.653 106.845 19.653 105.298C19.653 103.755 20.1636 102.873 21.0223 102.873C21.8811 102.873 22.3917 103.755 22.3917 105.298C22.3917 106.845 21.8869 107.712 21.0223 107.712ZM24.202 108.269H24.8867V106.601L25.3654 106.157L27.0336 108.269H27.9039L25.8818 105.716L27.7647 103.813H26.9175L24.9679 105.797H24.8867V102.328H24.202V108.269Z" fill="#D1D5DB"/>
<path opacity="0.466653" d="M8.61725 82.9464H11.414V84.1649H12.0987V82.9464H12.911V82.3082H12.0987V78.2233H11.2283L8.61725 82.3546V82.9464ZM11.414 82.3082H9.39476V82.2617L11.3676 79.1401H11.414V82.3082ZM15.9362 84.2461C17.2475 84.2461 18.0018 83.135 18.0018 81.1941C18.0018 79.2677 17.2359 78.1421 15.9362 78.1421C14.6365 78.1421 13.8706 79.2677 13.8706 81.1941C13.8706 83.135 14.6249 84.2461 15.9362 84.2461ZM15.9362 83.6079C15.0716 83.6079 14.5668 82.7404 14.5668 81.1941C14.5668 79.6507 15.0774 78.7687 15.9362 78.7687C16.7949 78.7687 17.3055 79.6507 17.3055 81.1941C17.3055 82.7404 16.8007 83.6079 15.9362 83.6079ZM21.0423 84.2461C22.3536 84.2461 23.1079 83.135 23.1079 81.1941C23.1079 79.2677 22.342 78.1421 21.0423 78.1421C19.7425 78.1421 18.9766 79.2677 18.9766 81.1941C18.9766 83.135 19.7309 84.2461 21.0423 84.2461ZM21.0423 83.6079C20.1777 83.6079 19.6729 82.7404 19.6729 81.1941C19.6729 79.6507 20.1835 78.7687 21.0423 78.7687C21.901 78.7687 22.4116 79.6507 22.4116 81.1941C22.4116 82.7404 21.9068 83.6079 21.0423 83.6079ZM24.222 84.1649H24.9066V82.4967L25.3853 82.0529L27.0535 84.1649H27.9239L25.9017 81.6119L27.7846 79.7087H26.9375L24.9879 81.6931H24.9066V78.2233H24.222V84.1649Z" fill="#D1D5DB"/>
<path opacity="0.466653" d="M10.7489 60.1419C11.8803 60.1419 12.7101 59.3064 12.7101 58.1691C12.7101 57.0173 11.9094 56.1731 10.8185 56.1731C10.4182 56.1731 10.0294 56.3153 9.7857 56.5096H9.75088L9.95977 54.7573H12.4432V54.1191H9.35632L8.99658 57.0434L9.66965 57.1247C9.91625 56.9477 10.3369 56.8201 10.7025 56.823C11.4597 56.8288 12.0138 57.4032 12.0138 58.1807C12.0138 58.9437 11.48 59.5036 10.7489 59.5036C10.1396 59.5036 9.65514 59.112 9.60002 58.5753H8.90374C8.94726 59.4804 9.72767 60.1419 10.7489 60.1419ZM15.8006 60.1419C17.1119 60.1419 17.8662 59.0308 17.8662 57.0899C17.8662 55.1635 17.1003 54.0378 15.8006 54.0378C14.5008 54.0378 13.7349 55.1635 13.7349 57.0899C13.7349 59.0308 14.4892 60.1419 15.8006 60.1419ZM15.8006 59.5036C14.936 59.5036 14.4312 58.6362 14.4312 57.0899C14.4312 55.5464 14.9418 54.6645 15.8006 54.6645C16.6593 54.6645 17.1699 55.5464 17.1699 57.0899C17.1699 58.6362 16.6651 59.5036 15.8006 59.5036ZM20.9066 60.1419C22.218 60.1419 22.9723 59.0308 22.9723 57.0899C22.9723 55.1635 22.2064 54.0378 20.9066 54.0378C19.6069 54.0378 18.841 55.1635 18.841 57.0899C18.841 59.0308 19.5953 60.1419 20.9066 60.1419ZM20.9066 59.5036C20.0421 59.5036 19.5373 58.6362 19.5373 57.0899C19.5373 55.5464 20.0479 54.6645 20.9066 54.6645C21.7654 54.6645 22.276 55.5464 22.276 57.0899C22.276 58.6362 21.7712 59.5036 20.9066 59.5036ZM24.0863 60.0607H24.771V58.3925L25.2497 57.9486L26.9179 60.0607H27.7882L25.7661 57.5076L27.649 55.6045H26.8018L24.8522 57.5889H24.771V54.1191H24.0863V60.0607Z" fill="#D1D5DB"/>
<path d="M55.5289 163.658H57.3972V168.961H58.1167V163.658H59.9851V163.019H55.5289V163.658ZM63.2047 167.139C63.2047 167.975 62.5664 168.357 62.0558 168.357C61.4872 168.357 61.081 167.94 61.081 167.29V164.505H60.3963V167.336C60.3963 168.474 60.9998 169.019 61.8353 169.019C62.5084 169.019 62.9494 168.659 63.1582 168.207H63.2047V168.961H63.8893V164.505H63.2047V167.139ZM67.0117 169.054C67.9169 169.054 68.5784 168.601 68.7872 167.928L68.1258 167.742C67.9517 168.207 67.5484 168.439 67.0117 168.439C66.2081 168.439 65.654 167.919 65.6221 166.965H68.8569V166.675C68.8569 165.015 67.8705 164.447 66.9421 164.447C65.7352 164.447 64.9345 165.398 64.9345 166.768C64.9345 168.137 65.7236 169.054 67.0117 169.054ZM65.6221 166.373C65.6685 165.68 66.1588 165.062 66.9421 165.062C67.6848 165.062 68.1606 165.619 68.1606 166.373H65.6221Z" fill="#424242"/>
<path d="M94.835 168.99H95.5777L96.889 164.256H96.9355L98.2468 168.99H98.9895L100.614 163.049H99.8831L98.6414 167.888H98.5833L97.3184 163.049H96.5061L95.2412 167.888H95.1832L93.9414 163.049H93.2104L94.835 168.99ZM102.871 169.083C103.776 169.083 104.438 168.63 104.647 167.957L103.985 167.772C103.811 168.236 103.408 168.468 102.871 168.468C102.068 168.468 101.514 167.949 101.482 166.994H104.716V166.704C104.716 165.045 103.73 164.476 102.802 164.476C101.595 164.476 100.794 165.428 100.794 166.797C100.794 168.166 101.583 169.083 102.871 169.083ZM101.482 166.402C101.528 165.709 102.018 165.091 102.802 165.091C103.544 165.091 104.02 165.648 104.02 166.402H101.482ZM107.441 169.083C108.299 169.083 108.589 168.549 108.74 168.306H108.822V168.99H109.483V163.049H108.798V165.242H108.74C108.589 165.01 108.323 164.476 107.452 164.476C106.327 164.476 105.549 165.37 105.549 166.774C105.549 168.19 106.327 169.083 107.441 169.083ZM107.533 168.468C106.675 168.468 106.234 167.714 106.234 166.762C106.234 165.822 106.663 165.091 107.533 165.091C108.369 165.091 108.81 165.764 108.81 166.762C108.81 167.772 108.357 168.468 107.533 168.468Z" fill="#424242"/>
<path d="M128.19 163.687H130.058V168.99H130.778V163.687H132.646V163.049H128.19V163.687ZM134.348 166.31C134.348 165.532 134.844 165.091 135.52 165.091C136.164 165.091 136.553 165.497 136.553 166.205V168.99H137.238V166.159C137.238 165.013 136.629 164.476 135.718 164.476C135.016 164.476 134.615 164.769 134.406 165.23H134.348V163.049H133.664V168.99H134.348V166.31ZM141.299 167.168C141.299 168.004 140.66 168.387 140.15 168.387C139.581 168.387 139.175 167.969 139.175 167.319V164.534H138.49V167.366C138.49 168.503 139.094 169.048 139.929 169.048C140.602 169.048 141.043 168.689 141.252 168.236H141.299V168.99H141.983V164.534H141.299V167.168Z" fill="#424242"/>
<path d="M159.328 168.99H160.048V166.333H162.624V165.694H160.048V163.687H162.891V163.049H159.328V168.99ZM163.982 168.99H164.667V166.17C164.667 165.567 165.143 165.126 165.793 165.126C165.975 165.126 166.164 165.161 166.21 165.172V164.476C166.132 164.47 165.952 164.464 165.851 164.464C165.317 164.464 164.853 164.766 164.69 165.207H164.644V164.534H163.982V168.99ZM167.022 168.99H167.707V164.534H167.022V168.99ZM167.37 163.791C167.637 163.791 167.858 163.582 167.858 163.327C167.858 163.072 167.637 162.863 167.37 162.863C167.103 162.863 166.883 163.072 166.883 163.327C166.883 163.582 167.103 163.791 167.37 163.791Z" fill="#424242"/>
<path d="M180.781 164.534H181.478C181.446 163.638 180.619 162.967 179.47 162.967C178.333 162.967 177.439 163.629 177.439 164.627C177.439 165.428 178.019 165.903 178.948 166.17L179.679 166.379C180.305 166.553 180.863 166.774 180.863 167.366C180.863 168.015 180.236 168.445 179.412 168.445C178.704 168.445 178.077 168.131 178.019 167.458H177.277C177.346 168.433 178.135 169.095 179.412 169.095C180.781 169.095 181.559 168.34 181.559 167.377C181.559 166.263 180.503 165.903 179.888 165.741L179.284 165.578C178.843 165.462 178.135 165.23 178.135 164.592C178.135 164.023 178.658 163.606 179.447 163.606C180.166 163.606 180.712 163.948 180.781 164.534ZM183.96 169.095C184.738 169.095 185.144 168.677 185.283 168.387H185.318V168.99H186.003V166.054C186.003 164.638 184.923 164.476 184.355 164.476C183.682 164.476 182.916 164.708 182.568 165.52L183.218 165.753C183.368 165.428 183.725 165.079 184.378 165.079C185.008 165.079 185.318 165.413 185.318 165.985V166.008C185.318 166.339 184.981 166.31 184.169 166.414C183.342 166.521 182.44 166.704 182.44 167.725C182.44 168.596 183.113 169.095 183.96 169.095ZM184.065 168.48C183.519 168.48 183.125 168.236 183.125 167.76C183.125 167.238 183.6 167.075 184.134 167.006C184.424 166.971 185.202 166.89 185.318 166.751V167.377C185.318 167.934 184.877 168.48 184.065 168.48ZM189.19 164.534H188.239V163.466H187.554V164.534H186.881V165.114H187.554V167.899C187.554 168.677 188.181 169.048 188.761 169.048C189.016 169.048 189.179 169.002 189.272 168.967L189.132 168.352C189.074 168.364 188.981 168.387 188.831 168.387C188.529 168.387 188.239 168.294 188.239 167.714V165.114H189.19V164.534Z" fill="#424242"/>
<path d="M208.299 164.534H208.996C208.964 163.638 208.137 162.967 206.988 162.967C205.851 162.967 204.957 163.629 204.957 164.627C204.957 165.428 205.538 165.903 206.466 166.17L207.197 166.379C207.824 166.553 208.381 166.774 208.381 167.366C208.381 168.015 207.754 168.445 206.93 168.445C206.222 168.445 205.596 168.131 205.538 167.458H204.795C204.865 168.433 205.654 169.095 206.93 169.095C208.299 169.095 209.077 168.34 209.077 167.377C209.077 166.263 208.021 165.903 207.406 165.741L206.802 165.578C206.362 165.462 205.654 165.23 205.654 164.592C205.654 164.023 206.176 163.606 206.965 163.606C207.684 163.606 208.23 163.948 208.299 164.534ZM212.975 167.168C212.975 168.004 212.337 168.387 211.827 168.387C211.258 168.387 210.852 167.969 210.852 167.319V164.534H210.167V167.366C210.167 168.503 210.771 169.048 211.606 169.048C212.279 169.048 212.72 168.689 212.929 168.236H212.975V168.99H213.66V164.534H212.975V167.168ZM215.599 166.31C215.599 165.532 216.08 165.091 216.736 165.091C217.371 165.091 217.757 165.506 217.757 166.205V168.99H218.442V166.159C218.442 165.021 217.836 164.476 216.933 164.476C216.26 164.476 215.843 164.778 215.634 165.23H215.576V164.534H214.914V168.99H215.599V166.31Z" fill="#424242"/>
<defs>
<filter id="filter0_dd" x="-16.3534" y="76.9999" width="283.998" height="117" filterUnits="userSpaceOnUse" color-interpolation-filters="sRGB">
<feFlood flood-opacity="0" result="BackgroundImageFix"/>
<feColorMatrix in="SourceAlpha" type="matrix" values="0 0 0 0 0 0 0 0 0 0 0 0 0 0 0 0 0 0 127 0" result="hardAlpha"/>
<feOffset dy="7.4889"/>
<feGaussianBlur stdDeviation="1.36162"/>
<feColorMatrix type="matrix" values="0 0 0 0 0 0 0 0 0 0 0 0 0 0 0 0 0 0 0.5 0"/>
<feBlend mode="normal" in2="BackgroundImageFix" result="effect1_dropShadow"/>
<feColorMatrix in="SourceAlpha" type="matrix" values="0 0 0 0 0 0 0 0 0 0 0 0 0 0 0 0 0 0 127 0" result="hardAlpha"/>
<feOffset/>
<feGaussianBlur stdDeviation="8"/>
<feComposite in2="hardAlpha" operator="out"/>
<feColorMatrix type="matrix" values="0 0 0 0 0.482353 0 0 0 0 0.380392 0 0 0 0 1 0 0 0 1 0"/>
<feBlend mode="normal" in2="effect1_dropShadow" result="effect2_dropShadow"/>
<feBlend mode="normal" in="SourceGraphic" in2="effect2_dropShadow" result="shape"/>
</filter>
<linearGradient id="paint0_linear" x1="49.5604" y1="93.6775" x2="49.5604" y2="145.004" gradientUnits="userSpaceOnUse">
<stop stop-color="#7B61FF"/>
<stop offset="1" stop-color="#7B61FF" stop-opacity="0.01"/>
</linearGradient>
</defs>
</svg>