<svg xmlns="http://www.w3.org/2000/svg" xmlns:xlink="http://www.w3.org/1999/xlink" width="99px" height="39px" viewBox="0 0 99 39" version="1.1">
    <title>logo-ens</title>
    <g id="Page-1" stroke="none" stroke-width="1" fill="none" fill-rule="evenodd">
        <g id="Artboard" transform="translate(-1427.000000, -47.000000)" fill="#FFFFFF" fill-rule="nonzero">
            <g id="logo-ens" transform="translate(1427.684658, 47.500000)">
                <path d="M1.9078203,11.9198003 L1.86868552,12.2620992 C1.82955075,12.7181498 1.84259567,13.1721131 1.9078203,13.6156406 C2.10349418,14.8549085 2.51114809,16.0452579 3.13078203,17.1377704 C3.68519135,18.0775979 4.24876446,19.0179645 4.81525332,19.951005 L5.24056904,20.6492888 C5.45340263,20.997621 5.66642658,21.3446465 5.87931142,21.6899504 L6.30479799,22.37814 C11.4769189,30.7201965 16.4366057,37.8792013 16.4366057,37.8792013 L16.4366057,37.8792013 L4.90815308,29.8402662 C2.18502496,27.7693844 0.489184692,24.6222962 0.244592346,21.1980033 C0.0978369384,19.7467554 0.0978369384,18.2628952 0.195673877,16.8116473 C0.391347754,15.425624 0.81530782,14.072213 1.43494176,12.8166389 C1.43494176,12.8166389 1.74475874,12.2133111 1.9078203,11.9198003 L1.9078203,11.9198003 Z M28.356406,20.2196339 C28.356406,20.2196339 29.2858569,21.8013311 29.6608985,22.6003328 C30.5740433,24.6222962 30.5577371,26.9540765 29.5793677,28.9760399 L29.6384876,28.8448369 L29.5793677,28.9760399 C29.2654742,29.5467554 28.8392211,30.0550489 28.3224561,30.4463011 L28.0955075,30.6066556 L17.6758735,37.8792013 L28.3400998,20.2196339 C28.3400998,20.2196339 28.34265,20.2239737 28.3475372,20.2323135 Z M91.3797005,8.96838602 C93.5810316,9.00099834 95.7823627,9.31081531 97.9184692,9.89783694 C97.9673877,9.91414309 97.9836938,9.94675541 97.9836938,9.99567388 L97.9836938,13.0612313 C97.9836938,13.0979201 97.9561772,13.134609 97.9217814,13.1506604 L97.8858569,13.1590682 L95.1301165,13.1590682 C95.0934276,13.1590682 95.0567388,13.1315516 95.0406874,13.0971558 L95.0322795,13.0612313 L95.0322795,12.1317804 C93.825624,11.8708819 92.6026622,11.7241265 91.3797005,11.7078203 C90.1730449,11.7241265 88.9663894,11.8708819 87.7760399,12.1317804 L87.7923461,16.3061564 L97.9184692,19.8445923 C97.9510815,19.8608985 97.9836938,19.8935108 97.9836938,19.9424293 L97.9836938,28.3237937 C97.9836938,28.3727121 97.9673877,28.4053245 97.9184692,28.4216306 C95.7986689,29.0086522 93.6136439,29.3347754 91.4123128,29.3510815 C89.2109817,29.3184692 87.0096506,29.0086522 84.8735441,28.4216306 C84.8246256,28.4053245 84.8083195,28.3727121 84.8083195,28.3237937 L84.8083195,25.2582363 C84.8083195,25.2215474 84.8358361,25.1848586 84.8702319,25.1688072 L84.9061564,25.1603993 L87.6455907,25.1603993 C87.6945092,25.1440932 87.7597338,25.1767055 87.7760399,25.225624 L87.7760399,26.1876872 C88.9826955,26.4485857 90.2056572,26.5953411 91.428619,26.6116473 C92.6352745,26.5790349 93.8419301,26.4485857 95.0322795,26.1876872 L95.0322795,21.7687188 L84.8735441,18.2139767 C84.8409318,18.1976705 84.8083195,18.1650582 84.8083195,18.1161398 L84.8083195,9.99567388 C84.8083195,9.94675541 84.8246256,9.91414309 84.8735441,9.89783694 C86.9933444,9.31081531 89.1783694,8.98469218 91.3797005,8.96838602 Z M66.4312812,9.32712146 C66.4638935,9.32712146 66.4965058,9.34342762 66.512812,9.37603993 L75.6116473,23.1873544 L75.6116473,9.44126456 C75.6116473,9.40457571 75.6391639,9.36788686 75.6735597,9.35183548 L75.7094842,9.34342762 L78.5141431,9.34342762 C78.5508319,9.34342762 78.5875208,9.37094426 78.6035722,9.40534006 L78.61198,9.44126456 L78.61198,28.9597338 C78.61198,28.9964226 78.5844634,29.0331115 78.5500676,29.0491629 L78.5141431,29.0575707 L75.9214642,29.0575707 C75.8725458,29.0412646 75.8399334,29.0249584 75.8236273,28.9923461 L66.7410982,15.1647255 L66.7410982,28.9434276 C66.7410982,28.9801165 66.7135815,29.0168053 66.6791857,29.0328567 L66.6432612,29.0412646 L66.6432612,29.0412646 L63.8386023,29.0412646 C63.8019135,29.0412646 63.7652246,29.0137479 63.7491733,28.9793521 L63.7407654,28.9434276 L63.7407654,28.9434276 L63.7407654,9.4249584 C63.7407654,9.38826955 63.768282,9.3515807 63.8026778,9.33552933 L63.8386023,9.32712146 L66.4312812,9.32712146 Z M57.446589,9.31081531 C57.4955075,9.31081531 57.544426,9.35973378 57.544426,9.40865225 L57.544426,11.9034942 C57.544426,11.9524126 57.4955075,12.0013311 57.446589,12.0013311 L47.9400998,12.0013311 L47.9400998,17.7574043 L56.0442596,17.7574043 C56.0809484,17.7574043 56.1176373,17.784921 56.1336886,17.8193168 L56.1420965,17.8552413 L56.1420965,20.3174709 C56.1420965,20.3541597 56.1145799,20.3908486 56.0801841,20.4069 L56.0442596,20.4153078 L47.9400998,20.4153078 L47.9400998,26.3507488 L57.4628952,26.3507488 C57.499584,26.3507488 57.5362729,26.3782654 57.5523243,26.4126612 L57.5607321,26.4485857 L57.5607321,28.9434276 C57.5607321,28.9801165 57.5332155,29.0168053 57.4988197,29.0328567 L57.4628952,29.0412646 L45.0539101,29.0412646 C44.9886855,29.0412646 44.9397671,29.0086522 44.9397671,28.9434276 L44.9397671,9.40865225 C44.9397671,9.35973378 44.9886855,9.31081531 45.037604,9.31081531 L57.446589,9.31081531 Z M17.7084859,0.0978369384 L29.2369384,8.13677205 C31.9600666,10.2076539 33.6559068,13.3547421 33.9004992,16.7790349 C33.9007325,16.7813681 33.9009654,16.7837013 33.901198,16.7860344 L33.9168053,16.7790349 C34.0635607,18.246589 34.0635607,19.7141431 33.9494176,21.1816972 C33.7537438,22.5677205 33.3297837,23.9211314 32.7101498,25.1767055 C32.7101498,25.1767055 32.4003328,25.7800333 32.2372712,26.0735441 C32.2382248,26.0668691 32.2391672,26.060194 32.2400985,26.053519 C32.2698835,25.8289517 32.2894509,25.6006656 32.2959734,25.373423 L32.2959734,25.0497784 C32.2894509,24.8238403 32.2698835,24.5994676 32.2372712,24.3777038 C32.0415973,23.1384359 31.6339434,21.9480865 31.0143095,20.855574 C30.8757072,20.6206172 30.7365321,20.3856266 30.5968819,20.1507252 L30.1766037,19.4464116 C30.1063523,19.3291115 30.0360065,19.2118645 29.9655786,19.0946859 L29.5421226,18.3925576 C23.9562075,9.16191013 18.0098008,0.549802729 17.7195566,0.130141061 L17.7084859,0.114143095 L17.7308821,0.130216749 C17.7160454,0.108748745 17.7084859,0.0978369384 17.7084859,0.0978369384 L17.7084859,0.0978369384 Z M16.469218,0.114143095 L5.78868552,17.7737105 C5.78868552,17.7737105 5.78599894,17.7691386 5.78085637,17.7603622 L5.77237937,17.7737105 C5.77237937,17.7737105 4.84292845,16.1920133 4.46788686,15.3930116 C3.5547421,13.3547421 3.58735441,11.0229617 4.54941764,9.01730449 C4.90815308,8.36505824 5.41364393,7.79434276 6.03327787,7.38668885 L16.4529118,0.114143095 L16.4404876,0.132836938 L16.469218,0.114143095 Z" id="Combined-Shape"/>
            </g>
        </g>
    </g>
</svg>