<svg xmlns="http://www.w3.org/2000/svg" width="256" height="315" viewBox="0 0 256 315" fill="none">
<g filter="url(#filter0_d)">
<rect x="33.4427" y="33.4427" width="185.037" height="244.115" rx="11.7041" fill="#232323"/>
<rect x="33.4427" y="33.4427" width="185.037" height="244.115" rx="11.7041" stroke="#1D1D1D" stroke-width="1.11468"/>
<rect x="33.4427" y="33.4427" width="185.037" height="244.115" rx="11.7041" stroke="#545454" stroke-opacity="0.2" stroke-width="1.11468"/>
<path d="M53.9138 236.841H55.4196C55.0918 234.945 53.4721 233.634 51.3725 233.634C48.855 233.634 47.0167 235.53 47.0167 238.636C47.0167 241.714 48.8028 243.628 51.439 243.628C53.7998 243.628 55.4861 242.08 55.4861 239.624V238.517H51.6623V239.729H54.0658C54.0326 241.296 52.997 242.289 51.439 242.289C49.7243 242.289 48.475 240.992 48.475 238.627C48.475 236.271 49.7338 234.974 51.382 234.974C52.674 234.974 53.5481 235.686 53.9138 236.841ZM59.3586 243.657C60.5651 243.657 61.2443 243.044 61.5151 242.498H61.5721V243.495H62.9591V238.65C62.9591 236.527 61.2871 236.104 60.1281 236.104C58.8076 236.104 57.5915 236.636 57.1165 237.966L58.4513 238.27C58.6603 237.753 59.1923 237.254 60.1471 237.254C61.0638 237.254 61.5341 237.734 61.5341 238.56V238.593C61.5341 239.111 61.0021 239.102 59.6911 239.254C58.3088 239.415 56.8933 239.776 56.8933 241.434C56.8933 242.868 57.9715 243.657 59.3586 243.657ZM59.6673 242.517C58.8646 242.517 58.285 242.156 58.285 241.453C58.285 240.693 58.9596 240.422 59.7813 240.313C60.2421 240.251 61.3346 240.128 61.5388 239.923V240.864C61.5388 241.728 60.8501 242.517 59.6673 242.517ZM64.8508 243.495H66.2711V238.997C66.2711 238.014 66.9598 237.33 67.7673 237.33C68.5558 237.33 69.1021 237.852 69.1021 238.646V243.495H70.5176V238.845C70.5176 237.966 71.0544 237.33 71.9806 237.33C72.7311 237.33 73.3487 237.748 73.3487 238.736V243.495H74.7689V238.603C74.7689 236.936 73.8379 236.104 72.5174 236.104C71.4676 236.104 70.6791 236.608 70.3276 237.387H70.2516C69.9334 236.589 69.2636 236.104 68.2898 236.104C67.3256 236.104 66.6083 236.584 66.3043 237.387H66.2141V236.199H64.8508V243.495ZM76.6725 243.495H78.0928V236.199H76.6725V243.495ZM77.3898 235.074C77.879 235.074 78.2875 234.694 78.2875 234.228C78.2875 233.763 77.879 233.378 77.3898 233.378C76.8958 233.378 76.492 233.763 76.492 234.228C76.492 234.694 76.8958 235.074 77.3898 235.074ZM81.4237 239.163C81.4237 238 82.1362 237.335 83.1243 237.335C84.0885 237.335 84.6728 237.966 84.6728 239.026V243.495H86.093V238.855C86.093 237.05 85.1003 236.104 83.6088 236.104C82.5115 236.104 81.7942 236.613 81.457 237.387H81.3667V236.199H80.0035V243.495H81.4237V239.163ZM91.0568 246.383C92.9141 246.383 94.3486 245.533 94.3486 243.657V236.199H92.9569V237.382H92.8524C92.6006 236.931 92.0971 236.104 90.7386 236.104C88.9763 236.104 87.6796 237.496 87.6796 239.819C87.6796 242.146 89.0048 243.386 90.7291 243.386C92.0686 243.386 92.5864 242.631 92.8429 242.165H92.9331V243.6C92.9331 244.745 92.1494 245.239 91.0711 245.239C89.8883 245.239 89.4276 244.645 89.1758 244.227L87.9551 244.73C88.3398 245.623 89.3136 246.383 91.0568 246.383ZM91.0426 242.208C89.7743 242.208 89.1141 241.234 89.1141 239.8C89.1141 238.399 89.7601 237.311 91.0426 237.311C92.2824 237.311 92.9474 238.323 92.9474 239.8C92.9474 241.306 92.2681 242.208 91.0426 242.208Z" fill="#5E5E5E"/>
<path d="M51.1825 261.216C54.6406 261.216 56.6411 259.071 56.6411 255.524C56.6411 251.994 54.6406 249.866 51.2989 249.866H47.5084V261.216H51.1825ZM49.2208 259.719V251.362H51.1936C53.6763 251.362 54.9564 252.848 54.9564 255.524C54.9564 258.212 53.6763 259.719 51.0883 259.719H49.2208ZM62.3062 261.387C64.1626 261.387 65.476 260.473 65.8529 259.088L64.2846 258.805C63.9853 259.608 63.2649 260.019 62.3228 260.019C60.9041 260.019 59.9509 259.099 59.9066 257.458H65.9582V256.871C65.9582 253.795 64.1183 252.593 62.1898 252.593C59.8179 252.593 58.2552 254.399 58.2552 257.015C58.2552 259.658 59.7958 261.387 62.3062 261.387ZM59.9121 256.217C59.9786 255.009 60.8542 253.961 62.2009 253.961C63.4865 253.961 64.3289 254.915 64.3344 256.217H59.9121ZM71.3821 261.387C73.3938 261.387 74.6961 260.179 74.879 258.522H73.2663C73.0557 259.442 72.3408 259.985 71.3932 259.985C69.9912 259.985 69.0878 258.816 69.0878 256.96C69.0878 255.136 70.0078 253.989 71.3932 253.989C72.4461 253.989 73.089 254.654 73.2663 255.452H74.879C74.7016 253.734 73.2996 252.593 71.3655 252.593C68.9659 252.593 67.4142 254.399 67.4142 256.998C67.4142 259.564 68.9105 261.387 71.3821 261.387ZM80.3195 261.387C82.176 261.387 83.4894 260.473 83.8663 259.088L82.2979 258.805C81.9987 259.608 81.2783 260.019 80.3362 260.019C78.9175 260.019 77.9643 259.099 77.92 257.458H83.9715V256.871C83.9715 253.795 82.1317 252.593 80.2032 252.593C77.8313 252.593 76.2685 254.399 76.2685 257.015C76.2685 259.658 77.8091 261.387 80.3195 261.387ZM77.9255 256.217C77.992 255.009 78.8676 253.961 80.2143 253.961C81.4999 253.961 82.3423 254.915 82.3478 256.217H77.9255ZM87.467 256.162C87.467 254.804 88.2982 254.028 89.4509 254.028C90.5759 254.028 91.2575 254.765 91.2575 256.001V261.216H92.9145V255.801C92.9145 253.695 91.7563 252.593 90.0162 252.593C88.736 252.593 87.8992 253.186 87.5058 254.089H87.4005V252.703H85.81V261.216H87.467V256.162ZM99.1102 252.703H97.3645V250.664H95.7075V252.703H94.4607V254.033H95.7075V259.06C95.702 260.606 96.8824 261.354 98.1902 261.326C98.7167 261.321 99.0714 261.221 99.2653 261.149L98.9661 259.78C98.8552 259.802 98.6502 259.852 98.3842 259.852C97.8466 259.852 97.3645 259.675 97.3645 258.716V254.033H99.1102V252.703ZM100.943 261.216H102.6V256.017C102.6 254.904 103.459 254.1 104.634 254.1C104.977 254.1 105.365 254.161 105.498 254.2V252.615C105.332 252.593 105.005 252.576 104.795 252.576C103.797 252.576 102.944 253.141 102.633 254.056H102.545V252.703H100.943V261.216ZM109.333 261.404C110.741 261.404 111.533 260.689 111.849 260.052H111.916V261.216H113.534V255.563C113.534 253.086 111.583 252.593 110.231 252.593C108.69 252.593 107.272 253.213 106.718 254.765L108.275 255.12C108.519 254.516 109.139 253.934 110.253 253.934C111.323 253.934 111.871 254.493 111.871 255.458V255.497C111.871 256.101 111.251 256.089 109.721 256.267C108.109 256.455 106.457 256.876 106.457 258.81C106.457 260.484 107.715 261.404 109.333 261.404ZM109.693 260.074C108.757 260.074 108.081 259.653 108.081 258.833C108.081 257.946 108.868 257.63 109.826 257.503C110.364 257.431 111.639 257.286 111.877 257.048V258.145C111.877 259.154 111.073 260.074 109.693 260.074ZM117.398 249.866H115.741V261.216H117.398V249.866ZM122.104 261.404C123.512 261.404 124.304 260.689 124.62 260.052H124.687V261.216H126.305V255.563C126.305 253.086 124.354 252.593 123.002 252.593C121.461 252.593 120.043 253.213 119.488 254.765L121.046 255.12C121.29 254.516 121.91 253.934 123.024 253.934C124.094 253.934 124.642 254.493 124.642 255.458V255.497C124.642 256.101 124.022 256.089 122.492 256.267C120.879 256.455 119.228 256.876 119.228 258.81C119.228 260.484 120.486 261.404 122.104 261.404ZM122.464 260.074C121.528 260.074 120.852 259.653 120.852 258.833C120.852 257.946 121.639 257.63 122.597 257.503C123.135 257.431 124.41 257.286 124.648 257.048V258.145C124.648 259.154 123.844 260.074 122.464 260.074ZM130.169 256.162C130.169 254.804 131 254.028 132.153 254.028C133.278 254.028 133.959 254.765 133.959 256.001V261.216H135.616V255.801C135.616 253.695 134.458 252.593 132.718 252.593C131.438 252.593 130.601 253.186 130.208 254.089H130.102V252.703H128.512V261.216H130.169V256.162ZM141.025 261.382C142.577 261.382 143.186 260.434 143.486 259.891H143.624V261.216H145.242V249.866H143.585V254.083H143.486C143.186 253.557 142.621 252.593 141.036 252.593C138.98 252.593 137.467 254.216 137.467 256.976C137.467 259.73 138.958 261.382 141.025 261.382ZM141.391 259.969C139.911 259.969 139.141 258.666 139.141 256.96C139.141 255.269 139.895 254 141.391 254C142.837 254 143.613 255.181 143.613 256.96C143.613 258.75 142.821 259.969 141.391 259.969Z" fill="#D1D5DB"/>
</g>
<rect x="42" y="43" width="167" height="177" rx="9" fill="black"/>
<g filter="url(#filter1_d)">
<path d="M126 178C151.405 178 172 157.405 172 132C172 106.595 151.405 86 126 86C100.595 86 80 106.595 80 132C80 157.405 100.595 178 126 178Z" fill="url(#paint0_linear)"/>
</g>
<path fill-rule="evenodd" clip-rule="evenodd" d="M112.591 115.9V150.4H141.341L112.591 115.9Z" fill="url(#paint1_linear)"/>
<path fill-rule="evenodd" clip-rule="evenodd" d="M83.8411 150.4H112.591V115.9L83.8411 150.4Z" fill="white"/>
<path fill-rule="evenodd" clip-rule="evenodd" d="M98.3999 168.8C106.082 174.573 115.65 178 126 178C136.35 178 145.918 174.573 153.6 168.8H98.3999Z" fill="#FF2D55"/>
<path fill-rule="evenodd" clip-rule="evenodd" d="M89.2 159.6C91.822 163.073 94.927 166.178 98.4 168.8H153.6C157.073 166.178 160.178 163.073 162.8 159.6H89.2Z" fill="#FC9965"/>
<path fill-rule="evenodd" clip-rule="evenodd" d="M141.709 150.4H83.8411C85.2671 153.689 87.0841 156.771 89.2001 159.6H141.732V150.4H141.709Z" fill="#FFBC5B"/>
<path fill-rule="evenodd" clip-rule="evenodd" d="M141.709 134.3V159.6H162.8L141.709 134.3Z" fill="url(#paint2_linear)"/>
<path fill-rule="evenodd" clip-rule="evenodd" d="M120.641 159.6H141.709V134.3L120.641 159.6Z" fill="white"/>
<path d="M141.709 127.4C148.06 127.4 153.209 122.251 153.209 115.9C153.209 109.549 148.06 104.4 141.709 104.4C135.358 104.4 130.209 109.549 130.209 115.9C130.209 122.251 135.358 127.4 141.709 127.4Z" fill="#FFC95B"/>
<path d="M112.591 109C115.767 109 118.341 106.426 118.341 103.25C118.341 100.074 115.767 97.5 112.591 97.5C109.415 97.5 106.841 100.074 106.841 103.25C106.841 106.426 109.415 109 112.591 109Z" fill="#FFC95B"/>
<defs>
<filter id="filter0_d" x="0.885315" y="0.885376" width="254.151" height="313.229" filterUnits="userSpaceOnUse" color-interpolation-filters="sRGB">
<feFlood flood-opacity="0" result="BackgroundImageFix"/>
<feColorMatrix in="SourceAlpha" type="matrix" values="0 0 0 0 0 0 0 0 0 0 0 0 0 0 0 0 0 0 127 0" result="hardAlpha"/>
<feOffset dx="2" dy="2"/>
<feGaussianBlur stdDeviation="17"/>
<feComposite in2="hardAlpha" operator="out"/>
<feColorMatrix type="matrix" values="0 0 0 0 0 0 0 0 0 0 0 0 0 0 0 0 0 0 1 0"/>
<feBlend mode="normal" in2="BackgroundImageFix" result="effect1_dropShadow"/>
<feBlend mode="normal" in="SourceGraphic" in2="effect1_dropShadow" result="shape"/>
</filter>
<filter id="filter1_d" x="26" y="32" width="200" height="200" filterUnits="userSpaceOnUse" color-interpolation-filters="sRGB">
<feFlood flood-opacity="0" result="BackgroundImageFix"/>
<feColorMatrix in="SourceAlpha" type="matrix" values="0 0 0 0 0 0 0 0 0 0 0 0 0 0 0 0 0 0 127 0" result="hardAlpha"/>
<feOffset/>
<feGaussianBlur stdDeviation="27"/>
<feComposite in2="hardAlpha" operator="out"/>
<feColorMatrix type="matrix" values="0 0 0 0 1 0 0 0 0 0.309804 0 0 0 0 0.341176 0 0 0 0.81 0"/>
<feBlend mode="normal" in2="BackgroundImageFix" result="effect1_dropShadow"/>
<feBlend mode="normal" in="SourceGraphic" in2="effect1_dropShadow" result="shape"/>
</filter>
<linearGradient id="paint0_linear" x1="158.527" y1="99.4731" x2="93.4731" y2="164.527" gradientUnits="userSpaceOnUse">
<stop stop-color="#FF2D55"/>
<stop offset="1" stop-color="#FFBC5B"/>
</linearGradient>
<linearGradient id="paint1_linear" x1="126.956" y1="115.9" x2="126.956" y2="150.4" gradientUnits="userSpaceOnUse">
<stop stop-color="#A524B3"/>
<stop offset="1" stop-color="#FF2D55"/>
</linearGradient>
<linearGradient id="paint2_linear" x1="152.247" y1="134.3" x2="152.247" y2="159.6" gradientUnits="userSpaceOnUse">
<stop stop-color="#A524B3"/>
<stop offset="1" stop-color="#FF2D55"/>
</linearGradient>
</defs>
</svg>