<svg xmlns="http://www.w3.org/2000/svg" width="234" height="293" viewBox="0 0 234 293" fill="none">
<g filter="url(#filter0_d)">
<rect x="25" y="21" width="183.922" height="243" rx="11.1468" fill="white"/>
</g>
<path d="M44.9138 223.841H46.4196C46.0918 221.945 44.4721 220.634 42.3725 220.634C39.855 220.634 38.0167 222.53 38.0167 225.636C38.0167 228.714 39.8028 230.628 42.439 230.628C44.7998 230.628 46.4861 229.08 46.4861 226.624V225.517H42.6623V226.729H45.0658C45.0326 228.296 43.997 229.289 42.439 229.289C40.7243 229.289 39.475 227.992 39.475 225.627C39.475 223.271 40.7338 221.974 42.382 221.974C43.674 221.974 44.5481 222.686 44.9138 223.841ZM50.3586 230.657C51.5651 230.657 52.2443 230.044 52.5151 229.498H52.5721V230.495H53.9591V225.65C53.9591 223.527 52.2871 223.104 51.1281 223.104C49.8076 223.104 48.5915 223.636 48.1165 224.966L49.4513 225.27C49.6603 224.753 50.1923 224.254 51.1471 224.254C52.0638 224.254 52.5341 224.734 52.5341 225.56V225.593C52.5341 226.111 52.0021 226.102 50.6911 226.254C49.3088 226.415 47.8933 226.776 47.8933 228.434C47.8933 229.868 48.9715 230.657 50.3586 230.657ZM50.6673 229.517C49.8646 229.517 49.285 229.156 49.285 228.453C49.285 227.693 49.9596 227.422 50.7813 227.313C51.2421 227.251 52.3346 227.128 52.5388 226.923V227.864C52.5388 228.728 51.8501 229.517 50.6673 229.517ZM55.8508 230.495H57.2711V225.997C57.2711 225.014 57.9598 224.33 58.7673 224.33C59.5558 224.33 60.1021 224.852 60.1021 225.646V230.495H61.5176V225.845C61.5176 224.966 62.0544 224.33 62.9806 224.33C63.7311 224.33 64.3487 224.748 64.3487 225.736V230.495H65.7689V225.603C65.7689 223.936 64.8379 223.104 63.5174 223.104C62.4676 223.104 61.6791 223.608 61.3276 224.387H61.2516C60.9334 223.589 60.2636 223.104 59.2898 223.104C58.3256 223.104 57.6083 223.584 57.3043 224.387H57.2141V223.199H55.8508V230.495ZM67.6725 230.495H69.0928V223.199H67.6725V230.495ZM68.3898 222.074C68.879 222.074 69.2875 221.694 69.2875 221.228C69.2875 220.763 68.879 220.378 68.3898 220.378C67.8958 220.378 67.492 220.763 67.492 221.228C67.492 221.694 67.8958 222.074 68.3898 222.074ZM72.4237 226.163C72.4237 225 73.1362 224.335 74.1243 224.335C75.0885 224.335 75.6728 224.966 75.6728 226.026V230.495H77.093V225.855C77.093 224.05 76.1003 223.104 74.6088 223.104C73.5115 223.104 72.7942 223.613 72.457 224.387H72.3667V223.199H71.0035V230.495H72.4237V226.163ZM82.0568 233.383C83.9141 233.383 85.3486 232.533 85.3486 230.657V223.199H83.9569V224.382H83.8524C83.6006 223.931 83.0971 223.104 81.7386 223.104C79.9763 223.104 78.6796 224.496 78.6796 226.819C78.6796 229.146 80.0048 230.386 81.7291 230.386C83.0686 230.386 83.5864 229.631 83.8429 229.165H83.9331V230.6C83.9331 231.745 83.1494 232.239 82.0711 232.239C80.8883 232.239 80.4276 231.645 80.1758 231.227L78.9551 231.73C79.3398 232.623 80.3136 233.383 82.0568 233.383ZM82.0426 229.208C80.7743 229.208 80.1141 228.234 80.1141 226.8C80.1141 225.399 80.7601 224.311 82.0426 224.311C83.2824 224.311 83.9474 225.323 83.9474 226.8C83.9474 228.306 83.2681 229.208 82.0426 229.208Z" fill="#949494"/>
<path d="M42.1825 248.216C45.6406 248.216 47.6411 246.071 47.6411 242.524C47.6411 238.994 45.6406 236.866 42.2989 236.866H38.5084V248.216H42.1825ZM40.2208 246.719V238.362H42.1936C44.6763 238.362 45.9564 239.848 45.9564 242.524C45.9564 245.212 44.6763 246.719 42.0883 246.719H40.2208ZM53.3062 248.387C55.1626 248.387 56.476 247.473 56.8529 246.088L55.2846 245.805C54.9853 246.608 54.2649 247.019 53.3228 247.019C51.9041 247.019 50.9509 246.099 50.9066 244.458H56.9582V243.871C56.9582 240.795 55.1183 239.593 53.1898 239.593C50.8179 239.593 49.2552 241.399 49.2552 244.015C49.2552 246.658 50.7958 248.387 53.3062 248.387ZM50.9121 243.217C50.9786 242.009 51.8542 240.961 53.2009 240.961C54.4865 240.961 55.3289 241.915 55.3344 243.217H50.9121ZM62.3821 248.387C64.3938 248.387 65.6961 247.179 65.879 245.522H64.2663C64.0557 246.442 63.3408 246.985 62.3932 246.985C60.9912 246.985 60.0878 245.816 60.0878 243.96C60.0878 242.136 61.0078 240.989 62.3932 240.989C63.4461 240.989 64.089 241.654 64.2663 242.452H65.879C65.7016 240.734 64.2996 239.593 62.3655 239.593C59.9659 239.593 58.4142 241.399 58.4142 243.998C58.4142 246.564 59.9105 248.387 62.3821 248.387ZM71.3195 248.387C73.176 248.387 74.4894 247.473 74.8663 246.088L73.2979 245.805C72.9987 246.608 72.2783 247.019 71.3362 247.019C69.9175 247.019 68.9643 246.099 68.92 244.458H74.9715V243.871C74.9715 240.795 73.1317 239.593 71.2032 239.593C68.8313 239.593 67.2685 241.399 67.2685 244.015C67.2685 246.658 68.8091 248.387 71.3195 248.387ZM68.9255 243.217C68.992 242.009 69.8676 240.961 71.2143 240.961C72.4999 240.961 73.3423 241.915 73.3478 243.217H68.9255ZM78.467 243.162C78.467 241.804 79.2982 241.028 80.4509 241.028C81.5759 241.028 82.2575 241.765 82.2575 243.001V248.216H83.9145V242.801C83.9145 240.695 82.7563 239.593 81.0162 239.593C79.736 239.593 78.8992 240.186 78.5058 241.089H78.4005V239.703H76.81V248.216H78.467V243.162ZM90.1102 239.703H88.3645V237.664H86.7075V239.703H85.4607V241.033H86.7075V246.06C86.702 247.606 87.8824 248.354 89.1902 248.326C89.7167 248.321 90.0714 248.221 90.2653 248.149L89.9661 246.78C89.8552 246.802 89.6502 246.852 89.3842 246.852C88.8466 246.852 88.3645 246.675 88.3645 245.716V241.033H90.1102V239.703ZM91.9431 248.216H93.6001V243.017C93.6001 241.904 94.459 241.1 95.6339 241.1C95.9775 241.1 96.3654 241.161 96.4984 241.2V239.615C96.3321 239.593 96.0052 239.576 95.7946 239.576C94.7971 239.576 93.9437 240.141 93.6333 241.056H93.5446V239.703H91.9431V248.216ZM100.333 248.404C101.741 248.404 102.533 247.689 102.849 247.052H102.916V248.216H104.534V242.563C104.534 240.086 102.583 239.593 101.231 239.593C99.6904 239.593 98.2717 240.213 97.7176 241.765L99.2748 242.12C99.5186 241.516 100.139 240.934 101.253 240.934C102.323 240.934 102.871 241.493 102.871 242.458V242.497C102.871 243.101 102.251 243.089 100.721 243.267C99.1085 243.455 97.4571 243.876 97.4571 245.81C97.4571 247.484 98.7151 248.404 100.333 248.404ZM100.693 247.074C99.7569 247.074 99.0808 246.653 99.0808 245.833C99.0808 244.946 99.8678 244.63 100.826 244.503C101.364 244.431 102.639 244.286 102.877 244.048V245.145C102.877 246.154 102.073 247.074 100.693 247.074ZM108.398 236.866H106.741V248.216H108.398V236.866ZM113.104 248.404C114.512 248.404 115.304 247.689 115.62 247.052H115.687V248.216H117.305V242.563C117.305 240.086 115.354 239.593 114.002 239.593C112.461 239.593 111.043 240.213 110.488 241.765L112.046 242.12C112.29 241.516 112.91 240.934 114.024 240.934C115.094 240.934 115.642 241.493 115.642 242.458V242.497C115.642 243.101 115.022 243.089 113.492 243.267C111.879 243.455 110.228 243.876 110.228 245.81C110.228 247.484 111.486 248.404 113.104 248.404ZM113.464 247.074C112.528 247.074 111.852 246.653 111.852 245.833C111.852 244.946 112.639 244.63 113.597 244.503C114.135 244.431 115.41 244.286 115.648 244.048V245.145C115.648 246.154 114.844 247.074 113.464 247.074ZM121.169 243.162C121.169 241.804 122 241.028 123.153 241.028C124.278 241.028 124.959 241.765 124.959 243.001V248.216H126.616V242.801C126.616 240.695 125.458 239.593 123.718 239.593C122.438 239.593 121.601 240.186 121.208 241.089H121.102V239.703H119.512V248.216H121.169V243.162ZM132.025 248.382C133.577 248.382 134.186 247.434 134.486 246.891H134.624V248.216H136.242V236.866H134.585V241.083H134.486C134.186 240.557 133.621 239.593 132.036 239.593C129.98 239.593 128.467 241.216 128.467 243.976C128.467 246.73 129.958 248.382 132.025 248.382ZM132.391 246.969C130.911 246.969 130.141 245.666 130.141 243.96C130.141 242.269 130.895 241 132.391 241C133.837 241 134.613 242.181 134.613 243.96C134.613 245.75 133.821 246.969 132.391 246.969Z" fill="black"/>
<rect x="33" y="30" width="167" height="177" rx="11.1468" fill="#E4E1F2"/>
<path d="M117 165C142.405 165 163 144.405 163 119C163 93.5949 142.405 73 117 73C91.5949 73 71 93.5949 71 119C71 144.405 91.5949 165 117 165Z" fill="url(#paint0_linear)"/>
<path fill-rule="evenodd" clip-rule="evenodd" d="M103.591 102.9V137.4H132.341L103.591 102.9Z" fill="url(#paint1_linear)"/>
<path fill-rule="evenodd" clip-rule="evenodd" d="M74.8411 137.4H103.591V102.9L74.8411 137.4Z" fill="white"/>
<path fill-rule="evenodd" clip-rule="evenodd" d="M89.3999 155.8C97.0819 161.573 106.65 165 117 165C127.35 165 136.918 161.573 144.6 155.8H89.3999Z" fill="#FF2D55"/>
<path fill-rule="evenodd" clip-rule="evenodd" d="M80.2 146.6C82.822 150.073 85.927 153.178 89.4 155.8H144.6C148.073 153.178 151.178 150.073 153.8 146.6H80.2Z" fill="#FC9965"/>
<path fill-rule="evenodd" clip-rule="evenodd" d="M132.709 137.4H74.8411C76.2671 140.689 78.0841 143.771 80.2001 146.6H132.732V137.4H132.709Z" fill="#FFBC5B"/>
<path fill-rule="evenodd" clip-rule="evenodd" d="M132.709 121.3V146.6H153.8L132.709 121.3Z" fill="url(#paint2_linear)"/>
<path fill-rule="evenodd" clip-rule="evenodd" d="M111.641 146.6H132.709V121.3L111.641 146.6Z" fill="white"/>
<path d="M132.709 114.4C139.06 114.4 144.209 109.251 144.209 102.9C144.209 96.5486 139.06 91.3999 132.709 91.3999C126.358 91.3999 121.209 96.5486 121.209 102.9C121.209 109.251 126.358 114.4 132.709 114.4Z" fill="#FFC95B"/>
<path d="M103.591 96C106.767 96 109.341 93.4256 109.341 90.25C109.341 87.0744 106.767 84.5 103.591 84.5C100.415 84.5 97.8411 87.0744 97.8411 90.25C97.8411 93.4256 100.415 96 103.591 96Z" fill="#FFC95B"/>
<defs>
<filter id="filter0_d" x="0" y="0" width="233.922" height="293" filterUnits="userSpaceOnUse" color-interpolation-filters="sRGB">
<feFlood flood-opacity="0" result="BackgroundImageFix"/>
<feColorMatrix in="SourceAlpha" type="matrix" values="0 0 0 0 0 0 0 0 0 0 0 0 0 0 0 0 0 0 127 0" result="hardAlpha"/>
<feOffset dy="4"/>
<feGaussianBlur stdDeviation="12.5"/>
<feComposite in2="hardAlpha" operator="out"/>
<feColorMatrix type="matrix" values="0 0 0 0 0 0 0 0 0 0 0 0 0 0 0 0 0 0 0.25 0"/>
<feBlend mode="normal" in2="BackgroundImageFix" result="effect1_dropShadow"/>
<feBlend mode="normal" in="SourceGraphic" in2="effect1_dropShadow" result="shape"/>
</filter>
<linearGradient id="paint0_linear" x1="149.527" y1="86.4731" x2="84.4731" y2="151.527" gradientUnits="userSpaceOnUse">
<stop stop-color="#FF2D55"/>
<stop offset="1" stop-color="#FFBC5B"/>
</linearGradient>
<linearGradient id="paint1_linear" x1="117.956" y1="102.9" x2="117.956" y2="137.4" gradientUnits="userSpaceOnUse">
<stop stop-color="#A524B3"/>
<stop offset="1" stop-color="#FF2D55"/>
</linearGradient>
<linearGradient id="paint2_linear" x1="143.247" y1="121.3" x2="143.247" y2="146.6" gradientUnits="userSpaceOnUse">
<stop stop-color="#A524B3"/>
<stop offset="1" stop-color="#FF2D55"/>
</linearGradient>
</defs>
</svg>